<svg xmlns="http://www.w3.org/2000/svg" enable-background="new 0 0 512 512" viewBox="0 0 512 512"><path fill="#fe646f" fill-rule="evenodd" d="M155.983,334.773l79.023,32.055l-62.246,133.7c-0.484,1.039-1.439,1.679-2.584,1.73
			c-1.145,0.052-2.154-0.498-2.73-1.489l-23.192-39.91l-45.471,7.945c-1.129,0.197-2.2-0.22-2.897-1.13
			c-0.697-0.91-0.823-2.052-0.339-3.091L155.983,334.773z" clip-rule="evenodd"/><path fill="#fd4755" fill-rule="evenodd" d="M219.629,360.59l15.377,6.238L203.8,433.855l-1.239,2.661l-1.239,2.661l-1.239,2.661l-1.239,2.661
			l-1.239,2.661l-1.239,2.661l-1.239,2.661l-1.239,2.661l-1.239,2.661l-1.239,2.661l-1.239,2.661l-1.239,2.661l-1.239,2.661
			l-1.239,2.661l-1.239,2.661l-1.239,2.661l-1.239,2.661l-1.239,2.661l-1.239,2.661l-1.239,2.661l-1.239,2.661l-1.239,2.661
			l-1.239,2.661l-1.239,2.661l-1.239,2.661l-0.065,0.14l-0.023,0.048c-0.491,1.011-1.434,1.631-2.561,1.682
			c-1.145,0.052-2.154-0.498-2.73-1.489l-7.262-12.497l48.167-103.459L219.629,360.59z" clip-rule="evenodd"/><path fill="#fe646f" fill-rule="evenodd" d="M357.179,334.773l-79.023,32.055l62.246,133.7c0.484,1.039,1.439,1.679,2.584,1.73
			c1.145,0.052,2.154-0.498,2.73-1.49l23.191-39.91l45.471,7.945c1.129,0.197,2.2-0.22,2.897-1.13
			c0.697-0.91,0.823-2.052,0.339-3.091L357.179,334.773z" clip-rule="evenodd"/><path fill="#fd4755" fill-rule="evenodd" d="M357.179,334.773l-15.377,6.238l58.338,125.306l14.238,2.488c1.129,0.197,2.2-0.22,2.897-1.13
			c0.697-0.91,0.823-2.052,0.339-3.091L357.179,334.773z" clip-rule="evenodd"/><path fill="#ffe177" fill-rule="evenodd" d="M282.097,18.558l26.237,19.639c7.176,5.371,14.728,8.12,23.678,8.618l32.722,1.82
			c19.594,1.09,35.507,14.443,39.983,33.549l7.475,31.909c2.044,8.727,6.063,15.688,12.598,21.821l23.897,22.429
			c14.309,13.429,17.916,33.887,9.063,51.401l-14.785,29.249c-4.043,7.999-5.439,15.915-4.375,24.814l3.89,32.542
			c2.329,19.485-8.058,37.475-26.097,45.201l-30.127,12.902c-8.24,3.529-14.397,8.695-19.302,16.197l-17.938,27.428
			c-10.74,16.423-30.261,23.528-49.046,17.851l-31.371-9.481c-8.58-2.593-16.618-2.593-25.197,0l-31.372,9.481
			c-18.785,5.677-38.305-1.428-49.046-17.851l-17.938-27.428c-4.906-7.502-11.063-12.668-19.302-16.196L95.617,341.55
			c-18.039-7.726-28.426-25.716-26.097-45.201l3.89-32.542c1.063-8.9-0.332-16.815-4.376-24.814l-14.785-29.249
			c-8.853-17.513-5.246-37.971,9.063-51.401l23.897-22.429c6.536-6.134,10.554-13.094,12.598-21.821l7.475-31.909
			c4.476-19.107,20.389-32.459,39.983-33.549l32.722-1.82c8.95-0.498,16.503-3.247,23.678-8.618l26.237-19.639
			C245.613,6.798,266.387,6.798,282.097,18.558z" clip-rule="evenodd"/><path fill="#ffd064" fill-rule="evenodd" d="M282.097,18.558l26.237,19.639c7.176,5.371,14.728,8.12,23.678,8.618l32.722,1.82
			c19.594,1.09,35.507,14.442,39.983,33.549l7.475,31.909c2.044,8.727,6.063,15.688,12.598,21.822l23.897,22.429
			c14.308,13.429,17.915,33.887,9.063,51.4l-14.785,29.249c-4.044,8-5.439,15.915-4.376,24.814l3.89,32.542
			c2.329,19.485-8.057,37.475-26.097,45.201l-30.127,12.902c-8.239,3.529-14.396,8.695-19.302,16.197l-17.938,27.428
			c-9.929,15.182-27.36,22.399-44.777,18.92c11.033-2.246,20.959-8.82,27.564-18.92l17.938-27.428
			c4.906-7.502,11.063-12.668,19.302-16.197l30.127-12.902c18.039-7.726,28.426-25.716,26.097-45.201l-3.89-32.542
			c-1.064-8.9,0.332-16.815,4.376-24.814l14.785-29.249c8.853-17.513,5.246-37.971-9.063-51.4l-23.897-22.429
			c-6.536-6.134-10.554-13.095-12.598-21.822l-7.475-31.909c-4.476-19.107-20.389-32.459-39.983-33.549l-32.722-1.82
			c-8.95-0.498-16.503-3.247-23.678-8.618l-26.237-19.639c-5.373-4.021-11.338-6.667-17.49-7.938
			C259.23,8.174,271.759,10.82,282.097,18.558L282.097,18.558z M247.393,405.421c-1.32,0.279-2.649,0.621-3.992,1.027l-31.372,9.481
			c-7.233,2.186-14.574,2.475-21.482,1.069c1.424-0.285,2.848-0.639,4.268-1.069l31.372-9.481
			C233.426,404.26,240.277,403.918,247.393,405.421z" clip-rule="evenodd"/><circle cx="256" cy="212.06" r="125" fill="#fe646f" fill-rule="evenodd" clip-rule="evenodd" transform="rotate(-45.001 255.999 212.064)"/><path fill="#fd4755" fill-rule="evenodd" d="M256,87.061c69.035,0,125,55.964,125,125c0,69.036-55.964,125-125,125c-3.315,0-6.599-0.132-9.85-0.385
			c64.431-5.023,115.151-58.894,115.151-124.615c0-65.72-50.719-119.592-115.151-124.615C249.4,87.192,252.685,87.061,256,87.061z" clip-rule="evenodd"/><path fill="#fff" fill-rule="evenodd" d="M317.9 237.043c12.267 12.259 12.311 32.432.043 44.708-12.259 12.267-32.432 12.311-44.708.043-12.267-12.259-12.311-32.432-.043-44.708C285.451 224.818 305.623 224.776 317.9 237.043L317.9 237.043zM238.765 142.328c12.268 12.259 12.31 32.432.043 44.708-12.259 12.268-32.432 12.31-44.708.043-12.268-12.258-12.31-32.432-.043-44.708C206.317 130.102 226.489 130.06 238.765 142.328L238.765 142.328zM227.515 153.64c-6.089-6.084-16.053-6.117-22.146-.02-6.084 6.088-6.116 16.053-.019 22.145 6.089 6.084 16.053 6.117 22.145.02C233.58 169.697 233.612 159.733 227.515 153.64L227.515 153.64zM306.65 248.356c-6.089-6.084-16.053-6.116-22.146-.02-6.084 6.088-6.116 16.053-.019 22.146 6.089 6.084 16.053 6.116 22.146.019C312.715 264.413 312.746 254.448 306.65 248.356zM218.799 277.9c-2.532 3.518-7.438 4.318-10.957 1.785-3.519-2.533-4.318-7.438-1.785-10.957l88.583-123.37c2.533-3.519 7.438-4.318 10.957-1.785 3.519 2.533 4.318 7.438 1.785 10.957L218.799 277.9z" clip-rule="evenodd"/></svg>