<?xml version="1.0" encoding="utf-8"?>
<!-- Generator: Adobe Illustrator 15.1.0, SVG Export Plug-In . SVG Version: 6.00 Build 0)  -->
<!DOCTYPE svg PUBLIC "-//W3C//DTD SVG 1.1//EN" "http://www.w3.org/Graphics/SVG/1.1/DTD/svg11.dtd">
<svg version="1.1" id="Layer_1" xmlns="http://www.w3.org/2000/svg" xmlns:xlink="http://www.w3.org/1999/xlink" x="0px" y="0px"
	 width="90px" height="90px" viewBox="0 0 90 90" enable-background="new 0 0 90 90" xml:space="preserve">
<g>
	<g>
		<g>
			<path fill="#D6D6D6" d="M47.342,46.563l8.947-3.663c0.891-1.284,1.137-1.756,1.889-3.483l-9.191,2.525l10.905-7.502
				c3.899-11.533,1.333-27.022,1.333-27.022S41.431,31.864,41.333,41.083c-0.07,6.593,4,10.667,4,10.667
				c4.123-1.938,6.903-3.711,9.048-6.115L47.342,46.563z"/>
		</g>
		<g>
			<path fill="#FFFFFF" d="M61.225,7.417c0,0-19.794,24.447-19.891,33.666c-0.062,5.777,3.056,9.62,3.828,10.482L61.225,7.417z"/>
		</g>
		<g>
			<g>
				<path fill="#D6D6D6" d="M48.193,43.23l-2.81-12.963c-0.538,0.967-1.04,1.918-1.494,2.841L48.193,43.23z"/>
			</g>
			<g>
				<path fill="#D6D6D6" d="M50.74,21.644c-0.882,1.308-1.756,2.644-2.598,3.984L49.5,39.641L50.74,21.644z"/>
			</g>
		</g>
		<g>
			<path fill="#C2C2C2" d="M39,70c1.36-5.056,2.906-10.045,4.518-15.011c1.6-4.97,3.31-9.901,5.041-14.824
				c1.766-4.911,3.557-9.813,5.456-14.677C55.902,20.621,57.857,15.777,60,11c-1.357,5.057-2.902,10.046-4.515,15.012
				c-1.601,4.97-3.31,9.901-5.044,14.823c-1.769,4.91-3.559,9.813-5.459,14.676C43.094,60.378,41.14,65.222,39,70z"/>
		</g>
		<g>
			<path fill="#FFD55F" d="M53.871,57.975H36.129c-3.938,0-7.129,3.191-7.129,7.128v6.96h32v-6.96
				C61,61.166,57.809,57.975,53.871,57.975z"/>
		</g>
		<g>
			<path fill="#E8B23C" d="M53.871,57.975h-6.304c3.937,0,7.129,3.191,7.129,7.128v6.96H61v-6.96
				C61,61.166,57.809,57.975,53.871,57.975z"/>
		</g>
		<g>
			<path fill="#FFE69E" d="M43.617,57.975h-7.364c-4.005,0-7.252,3.288-7.252,7.345v6.743h6.025v-5.387
				C35.025,61.87,38.872,57.975,43.617,57.975z"/>
		</g>
		<g>
			<path fill="#698299" d="M51.025,57.975H38.975v-2.76c0-1.139,0.922-2.061,2.061-2.061h7.93c1.139,0,2.061,0.922,2.061,2.061
				V57.975z"/>
		</g>
		<g>
			<path fill="#354859" d="M51.025,57.975H45v-4.82h3.756c1.254,0,2.27,1.016,2.27,2.269V57.975z"/>
		</g>
		<g opacity="0.46">
			<g>
				<g>
					<path fill="#FFD55F" d="M25.763,60.77c-6.059-3.202-9.822-9.445-9.822-16.292c0-3.49,0.98-6.887,2.836-9.823l1.004,0.635
						c-1.735,2.746-2.652,5.924-2.652,9.188c0,6.405,3.521,12.245,9.189,15.242L25.763,60.77z"/>
				</g>
				<g>
					<g>
						<path fill="#FFD55F" d="M18.912,35.565c-0.557-1.443-0.603-2.547-0.504-3.555c0.116-0.995,0.449-1.846,0.939-2.592
							c0.494-0.743,1.152-1.378,2.024-1.868c0.891-0.479,1.929-0.859,3.482-0.896c0.563,1.448,0.611,2.553,0.512,3.559
							c-0.118,0.995-0.45,1.846-0.946,2.588c-0.5,0.739-1.157,1.373-2.031,1.863C21.495,35.143,20.458,35.524,18.912,35.565z"/>
					</g>
					<g>
						<path fill="#FFD55F" d="M15.903,43.289c-1.443-0.557-2.293-1.264-2.973-2.013c-0.66-0.754-1.067-1.571-1.291-2.436
							c-0.219-0.865-0.248-1.778-0.026-2.755c0.243-0.981,0.658-2.007,1.673-3.183c1.452,0.555,2.302,1.261,2.981,2.01
							c0.658,0.755,1.065,1.572,1.283,2.438c0.212,0.867,0.241,1.78,0.018,2.757C17.324,41.09,16.911,42.114,15.903,43.289z"/>
					</g>
					<g>
						<path fill="#FFD55F" d="M17.181,43.309c-0.271-1.523-0.107-2.616,0.182-3.586c0.303-0.955,0.792-1.727,1.415-2.365
							c0.627-0.636,1.393-1.134,2.343-1.449c0.966-0.3,2.058-0.477,3.589-0.217c0.277,1.529,0.114,2.622-0.176,3.592
							c-0.305,0.953-0.793,1.726-1.421,2.359c-0.632,0.631-1.398,1.128-2.349,1.442C19.797,43.385,18.707,43.563,17.181,43.309z"/>
					</g>
					<g>
						<path fill="#FFD55F" d="M17.251,50.962c-0.254-1.526-0.077-2.617,0.223-3.583c0.314-0.952,0.812-1.718,1.442-2.35
							c0.634-0.628,1.406-1.117,2.36-1.422c0.969-0.289,2.063-0.453,3.591-0.176c0.259,1.532,0.083,2.623-0.217,3.589
							c-0.315,0.95-0.813,1.717-1.448,2.344c-0.639,0.623-1.411,1.112-2.366,1.415C19.867,51.068,18.774,51.233,17.251,50.962z"/>
					</g>
					<g>
						<path fill="#FFD55F" d="M19.61,57.391c-0.235-1.529-0.044-2.618,0.268-3.58c0.326-0.948,0.833-1.707,1.472-2.331
							c0.642-0.62,1.42-1.1,2.377-1.393c0.973-0.277,2.068-0.427,3.593-0.131c0.24,1.535,0.051,2.625-0.262,3.587
							c-0.328,0.946-0.835,1.706-1.478,2.324c-0.647,0.615-1.424,1.095-2.383,1.386C22.225,57.53,21.13,57.681,19.61,57.391z"/>
					</g>
					<g>
						<path fill="#FFD55F" d="M17.452,51.251c-1.534,0.199-2.618-0.017-3.573-0.352c-0.939-0.349-1.687-0.873-2.295-1.526
							c-0.605-0.656-1.066-1.445-1.336-2.409c-0.254-0.979-0.378-2.077-0.046-3.596c1.541-0.204,2.625,0.012,3.579,0.347
							c0.938,0.35,1.686,0.874,2.29,1.532c0.6,0.66,1.061,1.449,1.33,2.415C17.653,48.642,17.778,49.739,17.452,51.251z"/>
					</g>
					<g>
						<path fill="#FFD55F" d="M21.288,57.406c-1.282,0.867-2.347,1.161-3.35,1.291c-0.996,0.111-1.9-0.022-2.737-0.332
							c-0.835-0.314-1.601-0.813-2.276-1.553c-0.667-0.761-1.271-1.687-1.656-3.191c1.285-0.874,2.35-1.169,3.353-1.299
							c0.995-0.109,1.899,0.024,2.734,0.34c0.833,0.322,1.599,0.819,2.272,1.562C20.295,54.984,20.9,55.909,21.288,57.406z"/>
					</g>
				</g>
			</g>
			<g>
				<g>
					<path fill="#FFD55F" d="M64.236,60.77l-0.555-1.05c5.668-2.997,9.189-8.837,9.189-15.242c0-3.265-0.918-6.442-2.652-9.188
						l1.004-0.635c1.855,2.937,2.836,6.333,2.836,9.823C74.059,51.324,70.295,57.567,64.236,60.77z"/>
				</g>
				<g>
					<g>
						<path fill="#FFD55F" d="M71.088,35.565c0.557-1.443,0.604-2.547,0.505-3.555c-0.116-0.995-0.449-1.846-0.938-2.592
							c-0.494-0.743-1.152-1.378-2.025-1.868c-0.891-0.479-1.928-0.859-3.481-0.896c-0.563,1.448-0.611,2.553-0.512,3.559
							c0.118,0.995,0.45,1.846,0.946,2.588c0.5,0.739,1.157,1.373,2.031,1.863C68.505,35.143,69.541,35.524,71.088,35.565z"/>
					</g>
					<g>
						<path fill="#FFD55F" d="M74.097,43.289c1.443-0.557,2.292-1.264,2.973-2.013c0.66-0.754,1.067-1.571,1.291-2.436
							c0.219-0.865,0.248-1.778,0.026-2.755c-0.244-0.981-0.658-2.007-1.674-3.183c-1.451,0.555-2.302,1.261-2.98,2.01
							c-0.658,0.755-1.066,1.572-1.283,2.438c-0.212,0.867-0.241,1.78-0.018,2.757C72.676,41.09,73.089,42.114,74.097,43.289z"/>
					</g>
					<g>
						<path fill="#FFD55F" d="M72.819,43.309c0.271-1.523,0.106-2.616-0.182-3.586c-0.304-0.955-0.792-1.727-1.415-2.365
							c-0.627-0.636-1.393-1.134-2.344-1.449c-0.965-0.3-2.057-0.477-3.589-0.217c-0.277,1.529-0.114,2.622,0.176,3.592
							c0.305,0.953,0.793,1.726,1.421,2.359c0.633,0.631,1.398,1.128,2.35,1.442C70.203,43.385,71.293,43.563,72.819,43.309z"/>
					</g>
					<g>
						<path fill="#FFD55F" d="M72.749,50.962c0.254-1.526,0.077-2.617-0.223-3.583c-0.314-0.952-0.812-1.718-1.442-2.35
							c-0.635-0.628-1.406-1.117-2.359-1.422c-0.969-0.289-2.063-0.453-3.592-0.176c-0.26,1.532-0.084,2.623,0.217,3.589
							c0.315,0.95,0.813,1.717,1.448,2.344c0.64,0.623,1.411,1.112,2.366,1.415C70.133,51.068,71.226,51.233,72.749,50.962z"/>
					</g>
					<g>
						<path fill="#FFD55F" d="M70.39,57.391c0.235-1.529,0.044-2.618-0.269-3.58c-0.326-0.948-0.833-1.707-1.471-2.331
							c-0.643-0.62-1.42-1.1-2.378-1.393c-0.973-0.277-2.067-0.427-3.593-0.131c-0.24,1.535-0.051,2.625,0.262,3.587
							c0.327,0.946,0.834,1.706,1.478,2.324c0.647,0.615,1.425,1.095,2.384,1.386C67.775,57.53,68.869,57.681,70.39,57.391z"/>
					</g>
					<g>
						<path fill="#FFD55F" d="M72.548,51.251c1.534,0.199,2.618-0.017,3.573-0.352c0.939-0.349,1.688-0.873,2.295-1.526
							c0.605-0.656,1.066-1.445,1.336-2.409c0.255-0.979,0.379-2.077,0.047-3.596c-1.541-0.204-2.625,0.012-3.579,0.347
							c-0.938,0.35-1.687,0.874-2.29,1.532c-0.6,0.66-1.061,1.449-1.329,2.415C72.348,48.642,72.223,49.739,72.548,51.251z"/>
					</g>
					<g>
						<path fill="#FFD55F" d="M68.712,57.406c1.282,0.867,2.347,1.161,3.351,1.291c0.996,0.111,1.899-0.022,2.736-0.332
							c0.836-0.314,1.602-0.813,2.275-1.553c0.667-0.761,1.271-1.687,1.656-3.191c-1.284-0.874-2.35-1.169-3.353-1.299
							c-0.995-0.109-1.899,0.024-2.733,0.34c-0.833,0.322-1.6,0.819-2.273,1.562C69.705,54.984,69.1,55.909,68.712,57.406z"/>
					</g>
				</g>
			</g>
		</g>
		<g>
			<path fill="#E74D3D" d="M60.5,75h-31c-0.829,0-1.5-0.672-1.5-1.5l0,0c0-0.828,0.671-1.5,1.5-1.5h31c0.828,0,1.5,0.672,1.5,1.5
				l0,0C62,74.328,61.328,75,60.5,75z"/>
		</g>
		<g>
			<g>
				<polygon fill="#FFFFFF" points="34,55 35,62 33,62 				"/>
			</g>
			<g>
				<polygon fill="#FFFFFF" points="34,69 33,62 35,62 				"/>
			</g>
			<g>
				<polygon fill="#FFFFFF" points="27,62 34,61 34,63 				"/>
			</g>
			<g>
				<polygon fill="#FFFFFF" points="41,62 34,63 34,61 				"/>
			</g>
		</g>
		<g>
			<g>
				<polygon fill="#FFFFFF" points="58.5,68.5 59,71.5 58,71.5 				"/>
			</g>
			<g>
				<polygon fill="#FFFFFF" points="58.5,74.5 58,71.5 59,71.5 				"/>
			</g>
			<g>
				<polygon fill="#FFFFFF" points="55.5,71.5 58.5,71 58.5,72 				"/>
			</g>
			<g>
				<polygon fill="#FFFFFF" points="61.5,71.5 58.5,72 58.5,71 				"/>
			</g>
		</g>
	</g>
</g>
</svg>
