<?xml version="1.0" encoding="utf-8"?>
<!-- Generator: Adobe Illustrator 15.1.0, SVG Export Plug-In . SVG Version: 6.00 Build 0)  -->
<!DOCTYPE svg PUBLIC "-//W3C//DTD SVG 1.1//EN" "http://www.w3.org/Graphics/SVG/1.1/DTD/svg11.dtd">
<svg version="1.1" id="Layer_1" xmlns="http://www.w3.org/2000/svg" xmlns:xlink="http://www.w3.org/1999/xlink" x="0px" y="0px"
	 width="90px" height="90px" viewBox="0 0 90 90" enable-background="new 0 0 90 90" xml:space="preserve">
<g>
	<g>
		<ellipse fill="#E7F2F8" cx="45" cy="45.042" rx="45" ry="44.958"/>
		<path fill="#D7E4EB" d="M45,90c24.854,0,45-20.129,45-44.959S69.854,0.082,45,0.082"/>
	</g>
	<g>
		<path fill="#F5CBA4" d="M44.999,50.528l-5.375-1.295c0,5.333-0.976,6.534-0.976,6.534s-5.44,8.077-5.771,8.397
			c-0.332,0.323,9.366,4.51,9.366,4.51l2.755-1.518V50.528z"/>
		<path fill="#EDB785" d="M39.526,51.921c0,0,2.412,3.969,5.473,3.969c3.062,0,5.518-4.006,5.518-4.006L39.526,51.921z"/>
		<path fill="#EDB785" d="M44.999,50.528l5.374-1.295c0,5.333,0.975,6.534,0.975,6.534s5.442,8.077,5.773,8.397
			c0.33,0.323-9.367,4.51-9.367,4.51l-2.755-1.518V50.528z"/>
		<path fill="#E0A670" d="M50.476,51.949c-0.003-0.023-0.005-0.042-0.007-0.065l-5.47,0.019v3.987
			C47.838,55.89,50.154,52.448,50.476,51.949z"/>
		<path fill="#6BB9F0" d="M68.963,68.897l-0.145-0.466c0,0-0.846-5.025-3.633-7.903c-2.072-2.141-8.903-3.857-12.272-4.599
			c-0.001,0.008-0.004,0.016-0.006,0.022c-0.775-0.171-1.347-0.287-1.653-0.346c0.34,2.925-3.193,7.553-6.255,7.554l0,0h-0.002
			c-3.278-1.366-5.615-4.679-6.255-7.554c-0.306,0.059-0.877,0.175-1.651,0.346c-0.002-0.007-0.004-0.015-0.006-0.022
			c-3.371,0.741-10.201,2.458-12.272,4.599c-2.788,2.878-3.633,7.903-3.633,7.903l-0.146,0.466C27.397,74.635,35.788,79.9,44.997,80
			l0.002-0.007V80C54.208,79.9,62.598,74.635,68.963,68.897z"/>
		<path fill="#4CA6E6" d="M44.999,80c9.209-0.1,17.599-5.365,23.964-11.103l-0.145-0.466c0,0-0.846-5.025-3.633-7.903
			c-2.072-2.141-8.903-3.857-12.272-4.599c-0.001,0.008-0.004,0.016-0.006,0.022c-0.775-0.171-1.347-0.287-1.653-0.346
			c-0.189,4.383-6.255,7.554-6.255,7.554l0,0v16.833V80z"/>
		<path fill="#4CA6E6" d="M39.316,53.64c0,0,0.873,3.623,1.748,5.314s3.936,4.206,3.936,4.206l-4.045,5.429
			c0,0-3.656-3.689-4.397-7.475c-0.741-3.786,0-5.066,0-5.066L39.316,53.64z"/>
		<path fill="#3286C2" d="M50.67,53.64c0,0-0.873,3.623-1.748,5.314s-3.936,4.206-3.936,4.206l4.045,5.429
			c0,0,3.655-3.689,4.396-7.475c0.742-3.786,0-5.066,0-5.066L50.67,53.64z"/>
		<polygon fill="#A1D6FC" points="70.51,20.838 45,10 19.491,20.838 19.491,22.768 25.666,23.462 45,31.676 64.334,23.462 
			70.51,22.768 		"/>
		<polygon fill="#6BB9F0" points="44.999,10 44.999,31.676 45,31.676 64.334,23.462 70.51,22.768 70.51,20.838 45,10 		"/>
		<polygon fill="#6BB9F0" points="70.51,22.768 45,33.605 19.491,22.768 45,11.93 		"/>
		<polygon fill="#4CA6E6" points="44.999,11.93 44.999,33.605 45,33.605 70.51,22.768 45,11.93 		"/>
		<path fill="#F5CBA4" d="M57.896,35c0.077-0.863,0.125-2.56,0.125-3.291c0-0.041-0.026-0.088-0.066-0.14
			c0.043-0.445,0.066-0.897,0.066-1.354c0-7.418-5.83-6.194-13.022-6.194s-13.022-1.224-13.022,6.194
			c0,0.456,0.024,0.908,0.066,1.354c-0.039,0.052-0.066,0.099-0.066,0.14c0,0.731,0.049,2.428,0.125,3.291
			c-0.873,0.469-2.028,0.445-2.028,1.684c0,1.837,0.009,4.517,3.14,4.918c0.447,2.333,0.84,4.036,0.84,4.036
			c0.93,2.986,3.347,3.813,5.364,5.971c1.859,1.99,5.582,2.149,5.582,2.149s3.722-0.159,5.581-2.149
			c2.018-2.158,4.434-2.984,5.364-5.971c0,0,0.395-1.703,0.841-4.036c3.132-0.401,3.139-3.081,3.139-4.918
			C59.924,35.445,58.771,35.469,57.896,35z"/>
		<path fill="#EDB785" d="M50.58,51.608c2.018-2.158,4.434-2.984,5.364-5.971c0,0,0.395-1.703,0.841-4.036
			c3.132-0.401,3.139-3.081,3.139-4.918c0-1.238-1.153-1.215-2.027-1.684c0.077-0.863,0.125-2.56,0.125-3.291
			c0-0.041-0.026-0.088-0.066-0.14c0.043-0.445,0.066-0.897,0.066-1.354c0-7.418-5.83-6.194-13.022-6.194v29.736
			C44.999,53.758,48.721,53.599,50.58,51.608z"/>
		<circle fill="#FFFFFF" cx="44.999" cy="65.127" r="0.875"/>
		<circle fill="#FFFFFF" cx="44.999" cy="69.464" r="0.875"/>
		<circle fill="#FFFFFF" cx="44.999" cy="73.8" r="0.875"/>
		<circle fill="#FFFFFF" cx="44.999" cy="78.137" r="0.875"/>
		<path fill="#956F52" d="M44.999,19.648c0,0-13.994,0-13.994,9.621l1.096,4.856l1.528,1.265c0,0-0.875-9.619,4.373-9.619
			s6.997,0,6.997,0s1.749,0,6.997,0s4.373,9.619,4.373,9.619l1.527-1.265l1.096-4.856C58.992,19.648,44.999,19.648,44.999,19.648z"
			/>
		<path fill="#7E593D" d="M57.896,34.126l-1.527,1.265c0,0,0.875-9.619-4.373-9.619s-6.997,0-6.997,0v-6.123
			c0,0,13.993,0,13.993,9.621L57.896,34.126z"/>
		<path fill="#FFFFFF" d="M41.483,46.762c0,0,1.407-0.037,3.516-0.037c2.109,0,3.516,0.037,3.516,0.037s-0.703,2.623-3.516,2.623
			C42.187,49.385,41.483,46.762,41.483,46.762z"/>
		<path fill="#4CA6E6" d="M58.971,27.483c0,0-2.039-8.673-13.972-8.673c-11.933,0-13.971,8.673-13.971,8.673v2.27
			c4.142-1.445,8.903-2.27,13.971-2.27c5.067,0,9.829,0.824,13.972,2.27V27.483z"/>
		<path fill="#3286C2" d="M58.971,29.753v-2.27c0,0-2.039-8.673-13.972-8.673v8.673C50.066,27.483,54.828,28.308,58.971,29.753z"/>
		<path fill="#425B75" d="M22.26,35.354c-0.966,0-1.749-0.783-1.749-1.749c0-0.646,0.354-1.203,0.874-1.507V18.737
			c0-0.483,0.392-0.874,0.875-0.874s0.875,0.391,0.875,0.874v13.361c0.521,0.304,0.875,0.861,0.875,1.507
			C24.009,34.571,23.226,35.354,22.26,35.354z M22.26,35.354c-0.966,0-1.749,0.783-1.749,1.749v3.499h3.498v-3.499
			C24.009,36.138,23.226,35.354,22.26,35.354z"/>
	</g>
</g>
</svg>
