<svg width="61" height="61" viewBox="0 0 61 61" fill="none" xmlns="http://www.w3.org/2000/svg">
<circle cx="30.5" cy="30.5" r="30.5" fill="url(#paint0_linear)"/>
<path d="M30.4492 37.1562C29.1797 37.1562 28.0117 36.8516 26.9961 36.2422C25.9297 35.6328 25.1172 34.7695 24.5078 33.7031C23.8984 32.6875 23.5938 31.5195 23.5938 30.25C23.5938 29.4883 23.6953 28.7266 24 27.9648L21.1055 23.8008C19.0742 25.2227 17.4492 26.9492 16.2305 29.0312C15.9766 29.4375 15.875 29.8438 15.875 30.25C15.875 30.707 15.9766 31.1133 16.2305 31.4688C17.6523 33.957 19.6328 35.9375 22.1719 37.3594C24.7109 38.8828 27.4531 39.5938 30.5 39.5938C31.0078 39.5938 31.5664 39.5938 32.0742 39.543L30.4492 37.1562ZM44.7695 31.4688C44.9727 31.1133 45.125 30.707 45.125 30.25C45.125 29.8438 44.9727 29.4375 44.7695 29.0312C43.2969 26.5938 41.3164 24.6133 38.8281 23.1406C36.2891 21.668 33.4961 20.9062 30.5 20.9062C29.0273 20.9062 27.6055 21.1094 26.2344 21.4648L23.6445 17.7578C23.4414 17.5039 23.1367 17.3516 22.832 17.3008C22.4766 17.25 22.1719 17.3008 21.918 17.4531L21.2578 17.9609C20.9531 18.1641 20.8008 18.418 20.75 18.7227C20.6992 19.0781 20.75 19.3828 20.9531 19.6367L37.3555 42.7422C37.5586 43.0469 37.8125 43.1992 38.168 43.25C38.4727 43.3008 38.7773 43.25 39.082 43.0469L39.7422 42.5391C39.9961 42.3867 40.1484 42.1328 40.1992 41.7773C40.25 41.4727 40.1992 41.168 40.0469 40.8633L37.9141 37.8672C39.3359 37.1562 40.6055 36.293 41.8242 35.1758C42.9922 34.1094 43.957 32.8906 44.7695 31.4688ZM37.4062 30.25C37.4062 31.9766 36.8477 33.5 35.7305 34.7695L34.7656 33.3984C35.375 32.5859 35.6797 31.6211 35.7812 30.6055C35.832 29.5898 35.6289 28.6758 35.1719 27.7617C35.1719 28.3711 34.918 28.9297 34.5117 29.3359C34.1055 29.7422 33.5977 29.9453 32.9883 29.9453C32.3789 29.9453 31.8203 29.7422 31.4141 29.3359C31.0078 28.9297 30.8047 28.3711 30.8047 27.7617C30.8047 27.1523 31.0078 26.6445 31.4141 26.2383C31.8203 25.832 32.3789 25.5781 32.9883 25.5781C32.3281 25.2734 31.668 25.0703 30.957 25.0195C30.2461 24.9688 29.5352 25.0195 28.9258 25.2227L27.9102 23.8516C28.7227 23.5469 29.5859 23.3438 30.5 23.3438C31.7188 23.3438 32.8867 23.6992 33.9531 24.3086C34.9688 24.918 35.832 25.7812 36.4414 26.7969C37.0508 27.8633 37.4062 29.0312 37.4062 30.25ZM29.1797 35.3789C27.9102 35.0742 26.8945 34.3633 26.1836 33.2969C25.4219 32.2812 25.1172 31.0625 25.2188 29.7422L29.1797 35.3789Z" fill="white"/>
<defs>
<linearGradient id="paint0_linear" x1="39.04" y1="-7.99894e-08" x2="20.74" y2="61" gradientUnits="userSpaceOnUse">
<stop stop-color="#287BB3"/>
<stop offset="1" stop-color="#3F83B0"/>
</linearGradient>
</defs>
</svg>
