<?xml version="1.0" encoding="utf-8"?>
<!-- Generator: Adobe Illustrator 15.1.0, SVG Export Plug-In . SVG Version: 6.00 Build 0)  -->
<!DOCTYPE svg PUBLIC "-//W3C//DTD SVG 1.1//EN" "http://www.w3.org/Graphics/SVG/1.1/DTD/svg11.dtd">
<svg version="1.1" id="Layer_1" xmlns="http://www.w3.org/2000/svg" xmlns:xlink="http://www.w3.org/1999/xlink" x="0px" y="0px"
	 width="90px" height="90px" viewBox="0 0 90 90" enable-background="new 0 0 90 90" xml:space="preserve">
<g>
	<circle fill="#E7F2F8" cx="45" cy="45" r="45"/>
	<path fill="#D7E4EB" d="M45,90c24.854,0,45-20.147,45-45S69.854,0,45,0"/>
	<g>
		<path fill="#F5CBA4" d="M45.006,48.518l-5.736-1.381c0,5.694-1.041,6.979-1.041,6.979s-5.807,8.627-6.159,8.971
			c-0.354,0.344,9.996,4.816,9.996,4.816l2.94-1.62V48.518z"/>
		<path fill="#EDB785" d="M39.147,50.199c0,0,0.997,3.743,5.848,3.743c4.852,0,5.858-3.743,5.858-3.743H39.147z"/>
		<path fill="#EDB785" d="M45.006,48.518l5.734-1.381c0,5.694,1.04,6.979,1.04,6.979s5.808,8.627,6.161,8.971
			s-9.995,4.816-9.995,4.816l-2.94-1.62V48.518z"/>
		<path fill="#E0A670" d="M45.006,53.941c4.842-0.005,5.848-3.742,5.848-3.742h-5.848V53.941z"/>
		<path fill="#753D0F" d="M59.92,21.198c0,0-0.407-3.267-1.99-4.943c-1.376-1.459-2.559-2.057-5.01-2.057c0,0-2.331-4.195-7.924-4.2
			c-5.593,0.005-7.924,4.2-7.924,4.2c-2.452,0-3.634,0.598-5.011,2.057c-1.583,1.676-1.99,4.943-1.99,4.943
			c-4.667,3.734-0.992,11.988-0.992,11.988s-0.461,2.791,0.654,5.746s3.737,4.269,3.737,4.269s-2.464-3.947,11.525-3.957
			c13.99,0.01,11.525,3.957,11.525,3.957s2.62-1.313,3.736-4.269s0.655-5.746,0.655-5.746S64.586,24.932,59.92,21.198z"/>
		<path fill="#512A0A" d="M59.92,21.198c0,0-0.407-3.267-1.99-4.943c-1.376-1.459-2.559-2.057-5.01-2.057
			c0,0-2.33-4.192-7.919-4.199v29.245c13.984,0.011,11.52,3.957,11.52,3.957s2.62-1.313,3.736-4.269s0.655-5.746,0.655-5.746
			S64.586,24.932,59.92,21.198z"/>
		<path fill="#6BB9F0" d="M70.58,68.139l-0.154-0.496c0,0-0.902-5.368-3.877-8.443c-2.213-2.285-9.502-4.12-13.098-4.91
			c-0.002,0.008-0.004,0.016-0.006,0.023c-0.828-0.184-1.438-0.307-1.764-0.37c-0.684,3.072-3.408,5.372-6.676,5.374v0.002
			l-0.002-0.002c-3.268-0.002-5.992-2.302-6.676-5.374c-0.326,0.063-0.938,0.187-1.763,0.37c-0.002-0.008-0.004-0.016-0.007-0.023
			c-3.596,0.79-10.885,2.625-13.097,4.91c-2.975,3.075-3.876,8.443-3.876,8.443l-0.155,0.496C26.221,74.269,35.175,79.895,45.004,80
			l0.002-0.008V80C54.833,79.895,63.787,74.269,70.58,68.139z"/>
		<path fill="#FFFFFF" d="M50.395,56.666h11.492c2.002,0.742,3.758,1.6,4.662,2.533c0.082,0.086,0.156,0.178,0.235,0.267H23.226
			c0.079-0.089,0.154-0.181,0.236-0.267c0.903-0.934,2.66-1.791,4.66-2.533h11.494c1.25,1.609,3.195,2.65,5.388,2.65l0.002,0.002
			v-0.002C47.198,59.316,49.144,58.275,50.395,56.666z M19.431,68.139c0.95,0.857,1.947,1.703,2.978,2.527h45.192
			c1.031-0.824,2.028-1.67,2.979-2.527l-0.084-0.272H19.515L19.431,68.139z M26.22,73.467c1.52,1.018,3.103,1.963,4.742,2.8h28.085
			c1.639-0.837,3.223-1.782,4.742-2.8H26.22z M51.77,79.066H38.239c2.197,0.57,4.456,0.909,6.765,0.934l0.002-0.008V80
			C47.314,79.976,49.574,79.637,51.77,79.066z M21.373,62.266c-0.485,0.975-0.855,1.95-1.127,2.801h49.52
			c-0.273-0.851-0.644-1.826-1.129-2.801H21.373z"/>
		<path fill="#4CA6E6" d="M45.006,62.266c4.634,0,8.469-3.381,9.197-7.809c-0.264-0.06-0.516-0.115-0.752-0.168
			c-0.002,0.008-0.004,0.016-0.006,0.023c-0.828-0.184-1.438-0.307-1.764-0.37c-0.684,3.072-3.408,5.372-6.676,5.374v0.002
			l-0.002-0.002c-3.268-0.002-5.992-2.302-6.676-5.374c-0.326,0.063-0.938,0.187-1.763,0.37c-0.002-0.008-0.004-0.016-0.007-0.023
			c-0.235,0.052-0.487,0.108-0.751,0.168C36.536,58.885,40.371,62.266,45.006,62.266z"/>
		<path fill="#4CA6E6" d="M45.006,80c9.827-0.105,18.781-5.731,25.574-11.861l-0.154-0.496c0,0-0.902-5.368-3.877-8.443
			c-2.213-2.285-9.502-4.12-13.098-4.91c-0.002,0.008-0.004,0.016-0.006,0.023c-0.828-0.184-1.438-0.307-1.764-0.37
			c-0.684,3.072-3.408,5.372-6.676,5.374v0.002v20.674V80z"/>
		<path fill="#E7F2F8" d="M70.496,67.866l0.084,0.272c-0.474,0.428-0.96,0.853-1.455,1.273c-0.007,0.006-0.013,0.01-0.02,0.016
			c-0.491,0.416-0.992,0.828-1.502,1.236c-0.001,0.001-0.002,0.002-0.003,0.002H45.006v-2.8H70.496z M45.006,73.467v2.8h14.041
			c0.756-0.386,1.498-0.8,2.229-1.229c0.112-0.064,0.224-0.13,0.335-0.197c0.738-0.439,1.466-0.896,2.177-1.372l0.001-0.001H45.006z
			 M48.016,79.783c0.147-0.019,0.297-0.029,0.443-0.051c0.541-0.076,1.077-0.169,1.61-0.275c0.017-0.004,0.032-0.006,0.048-0.009
			c0.555-0.112,1.105-0.239,1.652-0.382l0,0h-6.764v0.926V80c0.588-0.006,1.174-0.035,1.757-0.08
			C47.182,79.887,47.599,79.835,48.016,79.783z M66.784,59.466c-0.079-0.089-0.153-0.181-0.235-0.267
			c-0.127-0.131-0.275-0.26-0.434-0.388c-0.056-0.045-0.118-0.089-0.178-0.134c-0.109-0.081-0.221-0.162-0.341-0.242
			c-0.081-0.054-0.164-0.107-0.249-0.16c-0.109-0.068-0.222-0.135-0.338-0.201c-0.104-0.059-0.207-0.119-0.316-0.177
			c-0.095-0.051-0.194-0.101-0.293-0.151c-0.752-0.381-1.604-0.742-2.514-1.08H50.395c-0.001,0.001-0.002,0.002-0.003,0.003
			c-0.149,0.192-0.31,0.376-0.479,0.552c-0.012,0.012-0.023,0.023-0.034,0.036c-0.345,0.353-0.726,0.667-1.14,0.938
			c-0.021,0.016-0.044,0.029-0.065,0.043c-0.179,0.113-0.363,0.22-0.553,0.318c-0.038,0.02-0.077,0.04-0.115,0.059
			c-0.425,0.209-0.875,0.376-1.344,0.493c-0.06,0.015-0.121,0.027-0.183,0.04c-0.176,0.039-0.355,0.071-0.537,0.097
			c-0.069,0.009-0.137,0.021-0.206,0.027c-0.24,0.026-0.483,0.044-0.73,0.044v0.002v0.147H66.784z M45.006,65.066h24.76
			c-0.273-0.851-0.644-1.826-1.129-2.801H45.006V65.066z"/>
		<path fill="#2781BF" d="M54.203,54.457c-0.264-0.06-0.516-0.115-0.752-0.168c-0.002,0.008-0.004,0.016-0.006,0.023
			c-0.828-0.184-1.438-0.307-1.764-0.37c-0.684,3.072-3.408,5.372-6.676,5.374v0.002v2.947
			C49.64,62.266,53.475,58.885,54.203,54.457z"/>
		<path fill="#F5CBA4" d="M58.537,32.681c-1.073-0.125-1.641,1.468-1.641,1.468c0.007-0.981,1.375-12.012-11.891-12.017l0,0h0
			c-0.001,0-0.003,0-0.005,0c-0.001,0-0.003,0-0.004,0h0l0,0c-13.265,0.005-11.897,11.036-11.89,12.017c0,0-0.568-1.593-1.641-1.468
			c-1.073,0.125-1.95,0.96-1.682,3.268c0.268,2.307,1.862,5.101,2.935,4.976c0.122-0.015,0.233-0.058,0.337-0.115
			c0.522,2.65,0.462,4.12,1.761,5.667c2.372,2.826,5.634,4.713,7.859,5.396c1.185,0.362,2.308,0.093,2.325,0.088
			c0.018,0.005,1.14,0.274,2.326-0.088c2.225-0.683,5.488-2.569,7.859-5.396c1.299-1.548,1.239-3.018,1.762-5.667
			c0.104,0.057,0.215,0.1,0.336,0.115c1.072,0.125,2.667-2.669,2.936-4.976C60.486,33.641,59.609,32.806,58.537,32.681z"/>
		<path fill="#EDB785" d="M44.996,22.132L44.996,22.132c13.276,0,11.908,11.035,11.901,12.017c0,0,0.567-1.593,1.641-1.468
			c1.072,0.125,1.949,0.96,1.682,3.268c-0.269,2.307-1.863,5.101-2.936,4.976c-0.121-0.015-0.232-0.058-0.336-0.115
			c-0.522,2.65-0.463,4.12-1.762,5.667c-2.371,2.826-5.635,4.713-7.859,5.396c-1.193,0.366-2.329,0.087-2.329,0.087l-0.002-0.011
			V22.132z"/>
		<path fill="#FFFFFF" d="M45.006,43.599h-4.433c0.816,2.217,2.683,2.976,4.433,2.976s3.617-0.758,4.434-2.976H45.006z"/>
	</g>
</g>
</svg>
