<svg xmlns="http://www.w3.org/2000/svg" width="145" height="125" fill-rule="evenodd" clip-rule="evenodd" image-rendering="optimizeQuality" shape-rendering="geometricPrecision" text-rendering="geometricPrecision" viewBox="0 0 14749 12690"><path fill="#bf4934" d="M2616 4165l11179 0 0 -1770 -11179 0c-490,0 -892,388 -892,878l0 0c0,490 402,892 892,892z"/><path fill="#eb7f61" d="M13795 2381l-11179 0c-491,0 -892,402 -892,892 0,69 8,136 23,200 91,-395 447,-692 869,-692l11179 0 0 -400z"/><path fill="#00c49a" d="M2482 5972l8529 -5815c151,-103 358,-64 461,87l3220 4722c103,151 63,358 -87,460l-8529 5816c-150,103 -357,64 -460,-87l-3221 -4723c-102,-150 -63,-357 87,-460z"/><path fill="#00dcab" d="M2415 5873l8529 -5816c150,-102 357,-63 460,87l3220 4723c103,151 64,358 -87,460l-8529 5816c-150,103 -357,63 -460,-87l-3220 -4723c-103,-150 -64,-357 87,-460z"/><polygon fill="#0e4275" points="2536 6638 11612 449 12396 1600 3320 7789"/><path fill="#18528c" d="M5632 4527l2937 -2002 -403 1959 -2937 2003 403 -1960zm3693 -2518l890 -607 -403 1960 -890 607 403 -1960z"/><polygon fill="#00ad88" points="4906 9231 9004 6436 9116 6600 5018 9394"/><polygon fill="#00ad88" points="5237 9716 7996 7835 8108 7999 5349 9880"/><polygon fill="#00ad88" points="5568 10202 8946 7898 9058 8062 5680 10366"/><polygon fill="#00ad88" points="8522 7476 10055 6430 10167 6594 8634 7640"/><polygon fill="#ecf0f1" points="4411 8506 12665 2877 12186 2175 3933 7803"/><polygon fill="#bac1cf" points="7848 5412 11882 2662 12108 2992 8074 5743"/><path fill="#ecf0f1" d="M10900 4769c455,-310 1074,-193 1384,262 310,454 193,1074 -262,1384 -454,310 -1074,193 -1384,-262 -310,-454 -192,-1074 262,-1384z"/><path fill="#ecf0f1" d="M11919 4074c455,-310 1074,-193 1384,262 310,454 193,1074 -261,1384 -455,310 -1075,193 -1384,-262 -310,-454 -193,-1074 261,-1384z"/><path fill="#ffc42e" d="M11993 4183c395,-269 933,-168 1202,227 269,394 167,932 -228,1201 -394,269 -932,167 -1201,-227 -269,-395 -167,-932 227,-1201z"/><path fill="#fab812" d="M12502 5761c-283,7 -564,-126 -736,-377 -171,-252 -192,-561 -82,-823 255,55 490,205 648,437 159,232 212,506 170,763z"/><path fill="#ff8527" d="M10974 4878c395,-269 932,-168 1201,227 269,394 168,932 -227,1201 -394,269 -932,167 -1201,-227 -269,-395 -167,-932 227,-1201z"/><path fill="#d1543e" d="M13795 4164l0 8139 -11033 0c-571,0 -1038,-467 -1038,-1038l0 -7992c0,490 401,891 892,891l11179 0z"/><path fill="#bf4934" fill-rule="nonzero" d="M2648 11727c-51,0 -92,-41 -92,-92 0,-50 41,-91 92,-91l503 0c51,0 92,41 92,91 0,51 -41,92 -92,92l-503 0zm1052 0c-51,0 -92,-41 -92,-92 0,-50 41,-91 92,-91l366 0c50,0 91,41 91,91 0,51 -41,92 -91,92l-366 0zm914 0c-50,0 -91,-41 -91,-92 0,-50 41,-91 91,-91l366 0c51,0 91,41 91,91 0,51 -40,92 -91,92l-366 0zm915 0c-51,0 -92,-41 -92,-92 0,-50 41,-91 92,-91l365 0c51,0 92,41 92,91 0,51 -41,92 -92,92l-365 0zm914 0c-50,0 -91,-41 -91,-92 0,-50 41,-91 91,-91l366 0c50,0 91,41 91,91 0,51 -41,92 -91,92l-366 0zm914 0c-50,0 -91,-41 -91,-92 0,-50 41,-91 91,-91l366 0c51,0 92,41 92,91 0,51 -41,92 -92,92l-366 0zm915 0c-51,0 -92,-41 -92,-92 0,-50 41,-91 92,-91l365 0c51,0 92,41 92,91 0,51 -41,92 -92,92l-365 0zm914 0c-50,0 -91,-41 -91,-92 0,-50 41,-91 91,-91l366 0c50,0 91,41 91,91 0,51 -41,92 -91,92l-366 0zm914 0c-50,0 -91,-41 -91,-92 0,-50 41,-91 91,-91l366 0c51,0 92,41 92,91 0,51 -41,92 -92,92l-366 0zm915 0c-51,0 -92,-41 -92,-92 0,-50 41,-91 92,-91l365 0c51,0 92,41 92,91 0,51 -41,92 -92,92l-365 0zm914 0c-50,0 -91,-41 -91,-92 0,-50 41,-91 91,-91l366 0c50,0 91,41 91,91 0,51 -41,92 -91,92l-366 0zm914 0c-50,0 -91,-41 -91,-92 0,-50 41,-91 91,-91l366 0c51,0 92,41 92,91 0,51 -41,92 -92,92l-366 0zm614 -484c0,50 -41,91 -92,91 -50,0 -91,-41 -91,-91l0 -366c0,-50 41,-91 91,-91 51,0 92,41 92,91l0 366zm0 -915c0,51 -41,92 -92,92 -50,0 -91,-41 -91,-92l0 -365c0,-51 41,-92 91,-92 51,0 92,41 92,92l0 365zm0 -914c0,51 -41,92 -92,92 -50,0 -91,-41 -91,-92l0 -366c0,-50 41,-91 91,-91 51,0 92,41 92,91l0 366zm0 -914c0,50 -41,91 -92,91 -50,0 -91,-41 -91,-91l0 -366c0,-51 41,-91 91,-91 51,0 92,40 92,91l0 366zm0 -915c0,51 -41,92 -92,92 -50,0 -91,-41 -91,-92l0 -365c0,-51 41,-92 91,-92 51,0 92,41 92,92l0 365zm0 -914c0,51 -41,91 -92,91 -50,0 -91,-40 -91,-91l0 -366c0,-50 41,-91 91,-91 51,0 92,41 92,91l0 366zm0 -914c0,50 -41,91 -92,91 -50,0 -91,-41 -91,-91l0 -366c0,-51 41,-92 91,-92 51,0 92,41 92,92l0 366zm-470 -628c50,0 91,41 91,92 0,50 -41,91 -91,91l-366 0c-50,0 -91,-41 -91,-91 0,-51 41,-92 91,-92l366 0zm-914 0c50,0 91,41 91,92 0,50 -41,91 -91,91l-366 0c-51,0 -92,-41 -92,-91 0,-51 41,-92 92,-92l366 0zm-915 0c51,0 92,41 92,92 0,50 -41,91 -92,91l-365 0c-51,0 -92,-41 -92,-91 0,-51 41,-92 92,-92l365 0zm-914 0c50,0 91,41 91,92 0,50 -41,91 -91,91l-366 0c-50,0 -91,-41 -91,-91 0,-51 41,-92 91,-92l366 0zm-914 0c50,0 91,41 91,92 0,50 -41,91 -91,91l-366 0c-51,0 -92,-41 -92,-91 0,-51 41,-92 92,-92l366 0zm-915 0c51,0 92,41 92,92 0,50 -41,91 -92,91l-365 0c-51,0 -92,-41 -92,-91 0,-51 41,-92 92,-92l365 0zm-914 0c50,0 91,41 91,92 0,50 -41,91 -91,91l-366 0c-50,0 -91,-41 -91,-91 0,-51 41,-92 91,-92l366 0zm-914 0c50,0 91,41 91,92 0,50 -41,91 -91,91l-366 0c-51,0 -92,-41 -92,-91 0,-51 41,-92 92,-92l366 0zm-915 0c51,0 92,41 92,92 0,50 -41,91 -92,91l-365 0c-51,0 -92,-41 -92,-91 0,-51 41,-92 92,-92l365 0zm-914 0c50,0 91,41 91,92 0,50 -41,91 -91,91l-366 0c-50,0 -91,-41 -91,-91 0,-51 41,-92 91,-92l366 0zm-914 0c50,0 91,41 91,92 0,50 -41,91 -91,91l-366 0c-51,0 -92,-41 -92,-91 0,-51 41,-92 92,-92l366 0zm-915 0c51,0 92,41 92,92 0,50 -41,91 -92,91l-279 0 -5 0 -6 0 -5 0 -6 0 -5 0 -6 0 -5 0 -6 0 -5 0 -6 0 -5 0 -6 0 -5 0 -5 0 -6 0 -5 -1 -1 0c-51,0 -91,-42 -90,-93 1,-50 43,-90 93,-89l1 0 5 0 5 0 5 0 6 0 5 0 5 0 5 0 5 0 6 0 5 0 5 0 6 0 5 0 5 0 6 0 5 0 279 0z"/><path fill="#eb7f61" d="M13795 4165l-11179 0c-491,0 -892,-402 -892,-892l0 859c149,290 453,490 802,490l11269 0 0 -457z"/><path fill="#ffba5e" fill-rule="nonzero" d="M2568 11647c-50,0 -91,-41 -91,-92 0,-50 41,-91 91,-91l512 0c50,0 91,41 91,91 0,51 -41,92 -91,92l-512 0zm1061 0c-51,0 -92,-41 -92,-92 0,-50 41,-91 92,-91l365 0c51,0 92,41 92,91 0,51 -41,92 -92,92l-365 0zm914 0c-51,0 -92,-41 -92,-92 0,-50 41,-91 92,-91l366 0c50,0 91,41 91,91 0,51 -41,92 -91,92l-366 0zm914 0c-50,0 -91,-41 -91,-92 0,-50 41,-91 91,-91l366 0c50,0 91,41 91,91 0,51 -41,92 -91,92l-366 0zm915 0c-51,0 -92,-41 -92,-92 0,-50 41,-91 92,-91l365 0c51,0 92,41 92,91 0,51 -41,92 -92,92l-365 0zm914 0c-51,0 -92,-41 -92,-92 0,-50 41,-91 92,-91l366 0c50,0 91,41 91,91 0,51 -41,92 -91,92l-366 0zm914 0c-50,0 -91,-41 -91,-92 0,-50 41,-91 91,-91l366 0c50,0 91,41 91,91 0,51 -41,92 -91,92l-366 0zm915 0c-51,0 -92,-41 -92,-92 0,-50 41,-91 92,-91l365 0c51,0 92,41 92,91 0,51 -41,92 -92,92l-365 0zm914 0c-51,0 -92,-41 -92,-92 0,-50 41,-91 92,-91l366 0c50,0 91,41 91,91 0,51 -41,92 -91,92l-366 0zm914 0c-50,0 -91,-41 -91,-92 0,-50 41,-91 91,-91l366 0c51,0 91,41 91,91 0,51 -40,92 -91,92l-366 0zm915 0c-51,0 -92,-41 -92,-92 0,-50 41,-91 92,-91l365 0c51,0 92,41 92,91 0,51 -41,92 -92,92l-365 0zm914 0c-51,0 -91,-41 -91,-92 0,-50 40,-91 91,-91l366 0c50,0 91,41 91,91 0,51 -41,92 -91,92l-366 0zm613 -484c0,50 -41,91 -91,91 -51,0 -92,-41 -92,-91l0 -366c0,-51 41,-91 92,-91 50,0 91,40 91,91l0 366zm0 -915c0,51 -41,92 -91,92 -51,0 -92,-41 -92,-92l0 -365c0,-51 41,-92 92,-92 50,0 91,41 91,92l0 365zm0 -914c0,51 -41,91 -91,91 -51,0 -92,-40 -92,-91l0 -366c0,-50 41,-91 92,-91 50,0 91,41 91,91l0 366zm0 -914c0,50 -41,91 -91,91 -51,0 -92,-41 -92,-91l0 -366c0,-51 41,-91 92,-91 50,0 91,40 91,91l0 366zm0 -915c0,51 -41,92 -91,92 -51,0 -92,-41 -92,-92l0 -365c0,-51 41,-92 92,-92 50,0 91,41 91,92l0 365zm0 -914c0,51 -41,91 -91,91 -51,0 -92,-40 -92,-91l0 -366c0,-50 41,-91 92,-91 50,0 91,41 91,91l0 366zm0 -914c0,50 -41,91 -91,91 -51,0 -92,-41 -92,-91l0 -366c0,-51 41,-91 92,-91 50,0 91,40 91,91l0 366zm-469 -628c50,0 91,41 91,92 0,50 -41,91 -91,91l-366 0c-51,0 -92,-41 -92,-91 0,-51 41,-92 92,-92l366 0zm-915 0c51,0 92,41 92,92 0,50 -41,91 -92,91l-366 0c-50,0 -91,-41 -91,-91 0,-51 41,-92 91,-92l366 0zm-914 0c50,0 91,41 91,92 0,50 -41,91 -91,91l-366 0c-50,0 -91,-41 -91,-91 0,-51 41,-92 91,-92l366 0zm-914 0c50,0 91,41 91,92 0,50 -41,91 -91,91l-366 0c-51,0 -92,-41 -92,-91 0,-51 41,-92 92,-92l366 0zm-915 0c51,0 92,41 92,92 0,50 -41,91 -92,91l-366 0c-50,0 -91,-41 -91,-91 0,-51 41,-92 91,-92l366 0zm-914 0c50,0 91,41 91,92 0,50 -41,91 -91,91l-366 0c-50,0 -91,-41 -91,-91 0,-51 41,-92 91,-92l366 0zm-914 0c50,0 91,41 91,92 0,50 -41,91 -91,91l-366 0c-51,0 -92,-41 -92,-91 0,-51 41,-92 92,-92l366 0zm-915 0c51,0 92,41 92,92 0,50 -41,91 -92,91l-366 0c-50,0 -91,-41 -91,-91 0,-51 41,-92 91,-92l366 0zm-914 0c50,0 91,41 91,92 0,50 -41,91 -91,91l-366 0c-50,0 -91,-41 -91,-91 0,-51 41,-92 91,-92l366 0zm-915 0c51,0 92,41 92,92 0,50 -41,91 -92,91l-365 0c-51,0 -92,-41 -92,-91 0,-51 41,-92 92,-92l365 0zm-914 0c51,0 92,41 92,92 0,50 -41,91 -92,91l-366 0c-50,0 -91,-41 -91,-91 0,-51 41,-92 91,-92l366 0zm-914 0c50,0 91,41 91,92 0,50 -41,91 -91,91l-279 0 -6 0 -5 0 -6 0 -5 0 -6 0 -5 0 -6 0 -5 0 -6 0 -5 0 -6 0 -5 0 -5 0 -6 0 -5 0 -6 -1 -1 0c-50,0 -90,-42 -89,-93 0,-50 42,-90 93,-89l1 0 5 0 5 0 5 0 5 0 5 0 6 0 5 0 5 0 5 0 6 0 5 0 5 0 6 0 5 0 5 0 6 0 279 0z"/><polygon fill="#bf4934" points="13795 7382 14105 7382 14105 7079 13795 7079"/><path fill="#bf4934" d="M11135 7569l2660 0 0 2035 -2660 0c-315,0 -572,-257 -572,-572l0 -891c0,-315 257,-572 572,-572z"/><path fill="#e8644c" d="M10996 7382l2800 0 309 -303 0 2155 -310 183 -2799 0c-314,0 -571,-258 -571,-572l0 -891c0,-315 257,-572 571,-572z"/><path fill="#eb7f61" d="M10996 7382l2800 0 309 -303 0 175 -309 302 -2800 0c-314,0 -571,258 -571,572l0 -174c0,-315 257,-572 571,-572z"/><polygon fill="#d1543e" points="13795 7382 14105 7079 14105 9234 13795 9417"/><path fill="#d1543e" d="M11479 7818c331,0 599,268 599,599 0,331 -268,599 -599,599 -330,0 -599,-268 -599,-599 0,-331 269,-599 599,-599z"/><path fill="#b9bec9" d="M11462 7863c297,0 537,240 537,537 0,297 -240,537 -537,537 -297,0 -537,-240 -537,-537 0,-297 240,-537 537,-537z"/><path fill="#e1e3e8" d="M11462 7863c58,0 113,9 165,26 156,87 261,253 261,444 0,281 -228,509 -509,509 -153,0 -290,-68 -383,-175 -45,-79 -71,-170 -71,-267 0,-297 240,-537 537,-537z"/><path fill="#eb7f61" d="M1895 11265l0 -6902c-69,-67 -127,-145 -171,-231l0 7133c0,571 467,1038 1038,1038l171 0c-572,0 -1038,-467 -1038,-1038z"/><path fill="#bf4934" d="M2134 12090l11661 0 0 213 -11033 0c-236,0 -454,-80 -628,-213z"/><polygon fill="#ffc42e" points="2191 6442 5966 6442 5966 7208 2191 7208"/><polygon fill="#ffd861" points="2191 6532 2548 6532 2548 7085 2191 7085"/><polygon fill="#ffd147" points="2191 6442 5966 6442 5966 6532 2191 6532"/><path fill="#faaa20" d="M5490 6588c11,81 16,165 16,251 0,84 -5,166 -16,246l476 0 0 -497 -476 0z"/><polygon fill="#ffaf26" points="2191 6588 5966 6588 5966 6532 2191 6532"/><polygon fill="#ffc42e" points="2191 6532 2548 6532 2548 6588 2191 6588"/><polygon fill="#ffaf26" points="2191 7085 5966 7085 5966 7208 2191 7208"/><polygon fill="#ffc42e" points="2593 7208 6369 7208 6369 7973 2593 7973"/><polygon fill="#ffd861" points="2593 7297 2951 7297 2951 7851 2593 7851"/><polygon fill="#ffd147" points="2593 7208 6369 7208 6369 7297 2593 7297"/><path fill="#faaa20" d="M5892 7353c11,81 17,165 17,251 0,84 -5,166 -16,247l476 0 0 -498 -477 0z"/><polygon fill="#ffaf26" points="2593 7353 6369 7353 6369 7297 2593 7297"/><polygon fill="#ffc42e" points="2593 7297 2951 7297 2951 7353 2593 7353"/><polygon fill="#ffaf26" points="2593 7851 6369 7851 6369 7973 2593 7973"/><polygon fill="#ffc42e" points="2191 7973 5966 7973 5966 8738 2191 8738"/><polygon fill="#ffd861" points="2191 8062 2548 8062 2548 8616 2191 8616"/><polygon fill="#ffd147" points="2191 7973 5966 7973 5966 8062 2191 8062"/><path fill="#faaa20" d="M5490 8118c11,81 16,165 16,251 0,84 -5,167 -16,247l476 0 0 -498 -476 0z"/><polygon fill="#ffaf26" points="2191 8118 5966 8118 5966 8062 2191 8062"/><polygon fill="#ffc42e" points="2191 8062 2548 8062 2548 8118 2191 8118"/><polygon fill="#ffaf26" points="2191 8616 5966 8616 5966 8738 2191 8738"/><polygon fill="#ffc42e" points="2191 8738 5966 8738 5966 9503 2191 9503"/><polygon fill="#ffd861" points="2191 8827 2548 8827 2548 9381 2191 9381"/><polygon fill="#ffd147" points="2191 8738 5966 8738 5966 8827 2191 8827"/><path fill="#faaa20" d="M5490 8883c11,82 16,165 16,251 0,84 -5,167 -16,247l476 0 0 -498 -476 0z"/><polygon fill="#ffaf26" points="2191 8883 5966 8883 5966 8827 2191 8827"/><polygon fill="#ffc42e" points="2191 8827 2548 8827 2548 8883 2191 8883"/><polygon fill="#ffaf26" points="2191 9381 5966 9381 5966 9503 2191 9503"/><polygon fill="#ffc42e" points="1892 9503 5668 9503 5668 10268 1892 10268"/><polygon fill="#ffd861" points="1892 9592 2249 9592 2249 10146 1892 10146"/><polygon fill="#ffd147" points="1892 9503 5668 9503 5668 9592 1892 9592"/><path fill="#faaa20" d="M5191 9648c11,82 17,166 17,251 0,84 -6,167 -16,247l476 0 0 -498 -477 0z"/><polygon fill="#ffaf26" points="1892 9648 5668 9648 5668 9592 1892 9592"/><polygon fill="#ffc42e" points="1892 9592 2249 9592 2249 9648 1892 9648"/><polygon fill="#ffaf26" points="1892 10146 5668 10146 5668 10268 1892 10268"/><polygon fill="#ffc42e" points="2191 10268 5966 10268 5966 11033 2191 11033"/><polygon fill="#ffd861" points="2191 10357 2548 10357 2548 10911 2191 10911"/><polygon fill="#ffd147" points="2191 10268 5966 10268 5966 10357 2191 10357"/><path fill="#faaa20" d="M5490 10413c11,82 16,166 16,251 0,85 -5,167 -16,247l476 0 0 -498 -476 0z"/><polygon fill="#ffaf26" points="2191 10413 5966 10413 5966 10357 2191 10357"/><polygon fill="#ffc42e" points="2191 10357 2548 10357 2548 10413 2191 10413"/><polygon fill="#ffaf26" points="2191 10911 5966 10911 5966 11033 2191 11033"/><polygon fill="#ffc42e" points="1859 11033 5634 11033 5634 11798 1859 11798"/><polygon fill="#ffd861" points="1859 11123 2216 11123 2216 11676 1859 11676"/><polygon fill="#ffd147" points="1859 11033 5634 11033 5634 11123 1859 11123"/><path fill="#faaa20" d="M5158 11179c10,81 16,165 16,251 0,84 -5,166 -16,246l476 0 0 -497 -476 0z"/><polygon fill="#ffaf26" points="1859 11179 5634 11179 5634 11123 1859 11123"/><polygon fill="#ffc42e" points="1859 11123 2216 11123 2216 11179 1859 11179"/><polygon fill="#ffaf26" points="1859 11676 5634 11676 5634 11798 1859 11798"/><polygon fill="#ffc42e" points="2191 11798 5966 11798 5966 12564 2191 12564"/><polygon fill="#ffd861" points="2191 11888 2548 11888 2548 12442 2191 12442"/><polygon fill="#ffd147" points="2191 11798 5966 11798 5966 11888 2191 11888"/><path fill="#faaa20" d="M5490 11944c11,81 16,165 16,251 0,84 -5,166 -16,247l476 0 0 -498 -476 0z"/><polygon fill="#ffaf26" points="2191 11944 5966 11944 5966 11888 2191 11888"/><polygon fill="#ffc42e" points="2191 11888 2548 11888 2548 11944 2191 11944"/><polygon fill="#ffaf26" points="2191 12442 5966 12442 5966 12564 2191 12564"/><path fill="#f2b51b" d="M2528 9503c462,103 856,383 1109,765l-1745 0 0 -765 636 0z"/><path fill="#f2b51b" d="M3549 10146c31,39 60,80 88,122l-1745 0 0 -122 1657 0z"/><path fill="#f7bc28" d="M3637 10268c149,225 248,485 283,765l-1729 0 0 -765 1446 0z"/><path fill="#f7bc28" d="M3637 10268c19,29 38,59 55,89l-1501 0 0 -89 1446 0z"/><path fill="#f2b51b" d="M3692 10357c11 19 21 38 32 56l-1533 0 0-56 1501 0zM3901 10911c7 40 14 81 19 122l-1729 0 0-122 1710 0zM3920 11033c4 30 7 60 9 90l-2070 0 0-90 2061 0z"/><path fill="#f7bc28" d="M3920 11033c9,74 14,149 14,226 0,188 -29,369 -82,539l-1993 0 0 -765 2061 0z"/><path fill="#f2b51b" d="M3929 11123c2 18 3 37 3 56l-2073 0 0-56 2070 0zM3885 11676c-9 42-21 82-33 122l-1993 0 0-122 2026 0zM3852 11798c-10 31-20 60-31 90l-1630 0 0-90 1661 0z"/><path fill="#f7bc28" d="M3852 11798c-93,296 -260,558 -479,766l-1182 0 0 -766 1661 0z"/><path fill="#f2b51b" d="M3821 11888c-7 19-14 37-22 56l-1608 0 0-56 1630 0zM3490 12442c-37 42-76 83-117 122l-1182 0 0-122 1299 0z"/><path fill="#ffc42e" d="M1799 9092c993,0 1798,806 1798,1799 0,993 -805,1799 -1798,1799 -994,0 -1799,-806 -1799,-1799 0,-993 805,-1799 1799,-1799z"/><path fill="#fce379" d="M1799 9518c758,0 1372,615 1372,1373 0,758 -614,1373 -1372,1373 -758,0 -1373,-615 -1373,-1373 0,-758 615,-1373 1373,-1373z"/><path fill="#f7cf56" d="M1799 9518c294,0 566,93 789,250 -203,-118 -439,-187 -692,-187 -758,0 -1372,615 -1372,1373 0,464 230,874 583,1123 -407,-239 -681,-680 -681,-1186 0,-758 615,-1373 1373,-1373z"/><path fill="#faaa20" d="M1355 10444c0,-120 26,-218 80,-292 53,-74 133,-122 240,-144l0 -132 248 0 0 132c108,21 190,68 244,142 54,74 81,172 81,294l0 56 -287 0 0 -74c0,-64 -13,-110 -40,-136 -26,-26 -64,-39 -111,-39 -48,0 -85,13 -112,39 -27,26 -40,72 -40,136 0,62 15,114 44,158 30,45 66,86 110,124 45,38 92,76 143,112 50,37 97,78 142,124 44,46 80,99 110,159 29,60 44,133 44,218 0,122 -28,221 -83,296 -55,74 -137,122 -245,142l0 130 -248 0 0 -130c-111,-20 -193,-68 -247,-142 -55,-75 -82,-174 -82,-296l0 -122 287 0 0 140c0,64 14,109 43,135 28,25 67,38 114,38 48,0 86,-13 115,-38 28,-26 43,-71 43,-135 0,-61 -15,-114 -45,-158 -29,-44 -66,-86 -110,-124 -44,-38 -91,-75 -142,-112 -50,-36 -98,-78 -142,-124 -44,-45 -81,-99 -110,-159 -30,-60 -44,-133 -44,-218z"/></svg>