<svg width="61" height="61" viewBox="0 0 61 61" fill="none" xmlns="http://www.w3.org/2000/svg">
<circle cx="30.543" cy="30.8617" r="30" fill="#B1B1B1"/>
<path d="M32.2188 19.4688C32.2188 18.3008 30.6445 17.8438 29.9336 18.8086C23.6875 28 32.625 28.4062 32.625 32.875C32.625 34.7031 31.1016 36.1758 29.3242 36.125C27.4961 36.125 26.125 34.6523 26.125 32.875V28.5078C26.125 27.3906 24.7539 26.8828 23.9922 27.6953C22.6211 29.1172 21.25 31.5547 21.25 34.5C21.25 39.8828 25.6172 44.25 31 44.25C36.332 44.25 40.75 39.8828 40.75 34.5C40.75 25.8672 32.2188 24.6992 32.2188 19.4688Z" fill="white"/>
</svg>
