<svg width="61" height="61" viewBox="0 0 61 61" fill="none" xmlns="http://www.w3.org/2000/svg">
<circle cx="30.6289" cy="30.9562" r="30" fill="#B1B1B1"/>
<path d="M43.6445 19.2656C43.543 18.9609 43.2891 18.707 42.9844 18.6055C41.3594 18.25 40.0898 18.25 38.8203 18.25C33.5898 18.25 30.4414 21.0938 28.1055 24.75H22.7734C21.9609 24.8008 20.9961 25.3594 20.5898 26.1211L18.1016 31.1484C18.0508 31.3008 18 31.5039 18 31.6562C18 32.3672 18.5078 32.875 19.2188 32.875H24.4492L23.332 34.043C22.7227 34.6016 22.6719 35.668 23.332 36.3281L25.9219 38.918C26.4805 39.4766 27.5469 39.5781 28.207 38.918L29.3242 37.8008V43.0312C29.375 43.7422 29.8828 44.25 30.5938 44.25C30.7461 44.25 30.9492 44.1992 31.1016 44.1484L36.1289 41.6602C36.8906 41.2539 37.4492 40.2891 37.4492 39.4766V34.1445C41.1562 31.8086 43.9492 28.6602 43.9492 23.4297C44 22.1602 44 20.8906 43.6445 19.2656ZM37.5 26.7812C36.332 26.7812 35.4688 25.918 35.4688 24.75C35.4688 23.6328 36.332 22.7188 37.5 22.7188C38.6172 22.7188 39.5312 23.6328 39.5312 24.75C39.5312 25.918 38.6172 26.7812 37.5 26.7812Z" fill="white"/>
</svg>
