<svg width="61" height="61" viewBox="0 0 61 61" fill="none" xmlns="http://www.w3.org/2000/svg">
<circle cx="30.465" cy="30.3889" r="30" fill="url(#paint0_linear)"/>
<path d="M24.7775 29.0139C27.8751 29.0139 30.465 26.4749 30.465 23.3264C30.465 20.2288 27.8751 17.6389 24.7775 17.6389C21.629 17.6389 19.09 20.2288 19.09 23.3264C19.09 26.4749 21.629 29.0139 24.7775 29.0139ZM24.7775 20.8889C26.0978 20.8889 27.215 22.0061 27.215 23.3264C27.215 24.6975 26.0978 25.7639 24.7775 25.7639C23.4064 25.7639 22.34 24.6975 22.34 23.3264C22.34 22.0061 23.4064 20.8889 24.7775 20.8889ZM36.1525 32.2639C33.004 32.2639 30.465 34.8538 30.465 37.9514C30.465 41.0999 33.004 43.6389 36.1525 43.6389C39.2501 43.6389 41.84 41.0999 41.84 37.9514C41.84 34.8538 39.2501 32.2639 36.1525 32.2639ZM36.1525 40.3889C34.7814 40.3889 33.715 39.3225 33.715 37.9514C33.715 36.6311 34.7814 35.5139 36.1525 35.5139C37.4728 35.5139 38.59 36.6311 38.59 37.9514C38.59 39.3225 37.4728 40.3889 36.1525 40.3889ZM38.9962 17.6897C38.59 17.6897 38.2345 17.842 37.9806 18.1975L19.2931 41.76C18.7345 42.5217 19.2931 43.6389 20.3087 43.6389H21.9845C22.34 43.6389 22.797 43.4358 23.0001 43.1311L41.586 19.5686C42.1446 18.7561 41.586 17.6389 40.5704 17.6897H38.9962Z" fill="white"/>
<defs>
<linearGradient id="paint0_linear" x1="42.4649" y1="2.78892" x2="23.8649" y2="60.3889" gradientUnits="userSpaceOnUse">
<stop stop-color="#3DAAE8"/>
<stop offset="0.765625" stop-color="#41BBFF"/>
<stop offset="1" stop-color="#47BDFF" stop-opacity="0.9"/>
</linearGradient>
</defs>
</svg>
